<svg id="Layer_1_copy" data-name="Layer 1 copy" xmlns="http://www.w3.org/2000/svg" viewBox="0 0 22.66 22.66"><defs><style>.cls-1{fill:#3fa9f5;}.cls-2{fill:#fff;}</style></defs><path d="M14.63,6.41a11.22,11.22,0,0,0-6.55,2.1c.3,0,.59,0,.91,0a19.91,19.91,0,0,1,3.95.36,10.79,10.79,0,0,1,2.6.8l-1.06,2.12a11.26,11.26,0,0,0-2.16-.69A15,15,0,0,0,9,10.72a9.17,9.17,0,0,0-1.79.16,5.48,5.48,0,0,0-1.45.48,2.88,2.88,0,0,0-1,.82,1.94,1.94,0,0,0-.36,1.17,2.07,2.07,0,0,0,.38,1.26,3.34,3.34,0,0,0,1.07.9,9.71,9.71,0,0,0,1.61.71c.6.22,1.28.43,2,.65q1.56.48,2.85,1A9.61,9.61,0,0,1,14.56,19,4.93,4.93,0,0,1,16,20.58a4.62,4.62,0,0,1,.51,2.25,4.11,4.11,0,0,1-2.29,3.75A11.13,11.13,0,0,1,9.5,27.83a11.2,11.2,0,0,0,5.13,1.24,11.33,11.33,0,0,0,0-22.66Z" transform="translate(-3.3 -6.41)"/><path class="cls-1" d="M13,22.85a2.32,2.32,0,0,0-.47-1.46,4.15,4.15,0,0,0-1.26-1.05,9.75,9.75,0,0,0-1.81-.76c-.68-.22-1.4-.43-2.16-.65a24,24,0,0,1-2.48-.79,10,10,0,0,1-1.54-.75c0,.12,0,.23,0,.35A11.24,11.24,0,0,0,6.48,25.6c.42,0,.85,0,1.3,0C11.28,25.65,13,24.71,13,22.85Z" transform="translate(-3.3 -6.41)"/><path class="cls-2" d="M16.54,22.83A4.62,4.62,0,0,0,16,20.58,4.93,4.93,0,0,0,14.56,19a9.61,9.61,0,0,0-2.24-1.16q-1.29-.48-2.85-1c-.73-.22-1.41-.43-2-.65a9.71,9.71,0,0,1-1.61-.71,3.34,3.34,0,0,1-1.07-.9,2.07,2.07,0,0,1-.38-1.26,1.94,1.94,0,0,1,.36-1.17,2.88,2.88,0,0,1,1-.82,5.48,5.48,0,0,1,1.45-.48A9.17,9.17,0,0,1,9,10.72a15,15,0,0,1,3.33.33,11.26,11.26,0,0,1,2.16.69l1.06-2.12a10.79,10.79,0,0,0-2.6-.8A19.91,19.91,0,0,0,9,8.46c-.32,0-.61,0-.91,0a11.29,11.29,0,0,0-4.77,8.88,10,10,0,0,0,1.54.75,24,24,0,0,0,2.48.79c.76.22,1.48.43,2.16.65a9.75,9.75,0,0,1,1.81.76,4.15,4.15,0,0,1,1.26,1.05A2.32,2.32,0,0,1,13,22.85c0,1.86-1.75,2.8-5.25,2.8-.45,0-.88,0-1.3,0a11.06,11.06,0,0,0,3,2.23,11.13,11.13,0,0,0,4.75-1.25A4.11,4.11,0,0,0,16.54,22.83Z" transform="translate(-3.3 -6.41)"/></svg>